<?xml version="1.0" encoding="UTF-8"?>
<svg width="266.15mm" height="398.31mm" version="1.1" viewBox="0 0 159.69 238.98" xmlns="http://www.w3.org/2000/svg" xmlns:cc="http://creativecommons.org/ns#" xmlns:dc="http://purl.org/dc/elements/1.1/" xmlns:rdf="http://www.w3.org/1999/02/22-rdf-syntax-ns#">
 <metadata>
  <rdf:RDF>
   <cc:Work rdf:about="">
    <dc:format>image/svg+xml</dc:format>
    <dc:type rdf:resource="http://purl.org/dc/dcmitype/StillImage"/>
   </cc:Work>
  </rdf:RDF>
 </metadata>
 <g transform="translate(-25.324 59.185)">
  <g transform="translate(0,-21.6)"></g>
  <path d="m-120.88-327.17-4.8747-1.2254" fill="none" stroke="#000" stroke-width=".27283px"/>
  <g transform="matrix(1.1955 0 0 1.1955 195.77 -132.85)" fill="none" stroke="#000">
   <path d="m-128.26 224.69c9e-4 -0.87088-0.0149-4.2175 0.0164-6.3266 0 0 4.2174-0.19231 4.4519 4.7563" stroke-width=".4609"/>
   <path d="m-128.21 218.36h-0.91667" stroke-linecap="round" stroke-width=".48444"/>
  </g>
  <g stroke="#000">
   <g>
    <path d="m104.77 119.2h-35.394c-0.44366-0.0767-0.4417-1.0906 0-1.1675h7.2027" fill="#050505" fill-opacity=".36471" stroke-width=".3162"/>
    <g transform="matrix(1.0771 0 0 .98718 210.93 -76.973)" fill="none" stroke-width=".565">
     <path d="m-27.09 210.58 2.5149-6.32c-9.1854-1.1036-12.153 6.9897-12.153 6.9897z" stroke-linecap="round" stroke-linejoin="round"/>
     <path d="m-31.61 210.88 2.6948-6.2748"/>
    </g>
    <path d="m37.23 145.61 0.0331 4.106 7.417 0.018" fill="none" stroke-width=".3162"/>
   </g>
   <rect x="37.384" y="150.29" width="6.925" height="14.839" ry=".38606" fill="#161616" stroke-opacity=".97166" stroke-width=".3162"/>
  </g>
  <path d="m44.585 149.52c0.0939 0.13884 0.18175 0.28224 0.26273 0.43032l0.0472 15.127s0.27459 0.47936 0.59937 8e-3l3.8657-8.4079s0.74473-1.6821 2.6843-1.3155c11.498 2.2408 37.19 4.7929 41.296 5.3695 1.184 0.1818 1.2808 1.0713 1.1494 2.2299-0.13613 1.1999-1.0563 11.555-1.2525 13.702-0.0412 0.45083-0.14416 1.0249 0.54561 0.97993 1.0514-0.0686 10.128 0.2136 13.168 0.14625 1.175-0.026 1.7045-0.29106 1.9927-0.57288 0.67893-0.6639 12.337-14.086 14.037-15.532 1.9468-1.655 2.5764-1.7379 4.2149-2.02 10.791-1.998 23.383-3.135 31.752-7.1116 1.2434-0.80775 2.0924-1.7052 3.3328-2.8328 0.0111-0.01 0.024-0.0219 0.0388-0.0356" fill="#161616"/>
  <path d="m37.23 145.57s5.7089 0.89063 7.618 4.3815l0.0472 15.127s0.27459 0.47937 0.59937 8e-3l3.8657-8.4079s0.74472-1.6821 2.6843-1.3155c11.498 2.2408 37.19 4.7929 41.296 5.3695 1.184 0.1818 1.2808 1.0713 1.1494 2.2299-0.13613 1.1999-1.0563 11.555-1.2525 13.702-0.0412 0.45084-0.14415 1.0249 0.54561 0.97994 1.0514-0.0686 10.128 0.2136 13.168 0.14625 1.175-0.026 1.7045-0.29106 1.9927-0.57287 0.67892-0.66391 12.337-14.086 14.037-15.532 1.9468-1.655 2.5764-1.7379 4.2149-2.02 10.791-1.998 23.383-3.135 31.752-7.1117 1.2434-0.80775 2.0924-1.7052 3.3328-2.8328 1.0587-0.96248 19.557-18.626 19.557-18.626-4.8545 0.81817-72.192 5.9295-137.9 5.4948-3.7892 6.0627-6.7056 8.9796-6.7056 8.9796z" fill="none" stroke="#070000" stroke-linecap="round" stroke-linejoin="round" stroke-width=".3162"/>
  <g stroke="#000">
   <path d="m46.693 138.38c58.354-0.40998 100.78-2.0841 128.12-4.7322" fill="none" stroke-width=".3162"/>
   <path d="m37.368 147.88-0.03659 1.6189 125.47 0.0926 1.6282-1.4549z" fill="#161616" stroke-width=".15574px"/>
   <path d="m114.48 13.882-0.94818-61.266v0l-0.83078-1.4463 3.6528-0.03619 0.68756 36.137" fill="#050505" fill-opacity=".36471" stroke-linecap="round" stroke-linejoin="round" stroke-width=".3162"/>
   <path d="m119.61 122.06 0.15236 8.0076-3.4806-0.0212-0.13272-8.5759" fill="#050505" fill-opacity=".36471" stroke-linecap="round" stroke-linejoin="round" stroke-width=".3162"/>
  </g>
  <g fill="none" stroke="#000">
   <path d="m43.935 136.59-2.3932-1.1808s-3.5991 7.7085-4.3124 10.16" stroke-width=".3162"/>
   <path d="m42.612 135.77 0.71326-1.3374c0.29596-0.59192 1.0253-0.53495 1.0253-0.53495 33.344-0.22838 43.895-1.0511 52.425-5.0374l5.0374-0.13374 0.80242 0.89158 41.993 0.62411s0.91341 0.092 1.5081 0.61462l3.0579 2.2128" stroke-linecap="round" stroke-linejoin="round" stroke-width=".3162"/>
   <path d="m54.586 127.34-0.0534 6.2697" stroke-linecap="round" stroke-width=".639"/>
   <path d="m55.68 131.9v-2.1877h1.9743v2.1877z" stroke-width=".3162"/>
  </g>
  <path d="m55.674 129.6c0.42687-1.2273 1.5842-1.1557 1.9843 0.0182" fill="#161616" stroke="#000" stroke-width=".3162"/>
  <g fill="none" stroke="#000" stroke-width=".3162">
   <path d="m57.67 131.9c-0.50691 0.64031-0.45355 1.7075-0.45355 1.7075"/>
   <path d="m55.663 131.9c0.50691 0.64031 0.45355 1.7196 0.45355 1.7196"/>
   <path d="m54.674 132.31 1.1496 0.0172" stroke-linecap="round"/>
   <path d="m102.62 129.61-18.334-0.15996v2.5722"/>
   <path d="m88.751 131.53s49.05-0.27699 56.827-0.88365" stroke-linecap="round"/>
  </g>
  <g fill="#050505" fill-opacity=".36471" stroke="#000" stroke-linecap="round" stroke-linejoin="round" stroke-width=".3162">
   <rect x="93.953" y="132.97" width="4.6592" height="1.2594" rx=".37189" ry=".24879"/>
   <rect x="107.24" y="132.82" width="4.6592" height="1.2594" rx=".37189" ry=".24879"/>
   <rect x="120.2" y="132.46" width="4.6592" height="1.2594" rx=".37189" ry=".24879"/>
   <rect x="132.59" y="132.15" width="4.6592" height="1.2594" rx=".37189" ry=".24879"/>
  </g>
  <g fill="none">
   <g stroke="#000">
    <g stroke-width=".3162">
     <path d="m113.53-47.385-71.991 182.79" stroke-linecap="round"/>
     <g>
      <path d="m116.41-47.323 65.339 178.23"/>
      <path d="m98.983 128.54-2.0869-9.0757"/>
      <path d="m101.36 118.42-31.98 17.988"/>
     </g>
    </g>
    <path d="m113.73 21.468-0.96459-57.156-0.94758 0.0755s-37.472 70.736-40.589 152.65v7e-5c9.018 2.3519 21.927 2.2343 31.453 1.6867" stroke-linecap="round" stroke-width=".2893px"/>
   </g>
   <path d="m112.8-30.704-2.9002-0.73702m3.5546 42.344s-7.6053-1.4279-20.198-1.2464m2.6273 0.0384-9.4584 36.767m12.815-36.715-7.4741 36.793m5.3429 0.24429 5.4881-36.894m3.6432 0.106-3.4858 37.138m5.7563 0.4317 1.3505-37.102m0.36686 43.579-0.0423-6.1435m-4.4701-0.48082 0.33785 36.524m-20.228-37.332-14.597 70.426m18.963-70.304-7.4408 36.472m4.5591 0.32434 7.4733-36.65m4.7402 0.22654-7.5195 36.587m9.4776 0.22897-0.31393-36.733m-0.83998-0.12611-3.5298 36.784m6.7136 0.20255 2.217 6.2861m-6.8305-6.3276 6.0053 12.268m-8.0865-4.4032 7.2448 10.065m-7.7543-1.4487 7.0118 6.3085m-7.4512 0.89735 6.7432 3.4363m-7.1287 2.9452 6.378 1.4161m-5.3458-105.89 15.771-45.209m-11.717 45.364 11.717-45.364m-7.4976 45.516 7.4976-45.516m0 0-3.2215 45.833m-3.6503-31.862s5.3943 2.6626 7.5738 1.9048m-10.252 4.3038s7.5865 3.7188 10.363 2.5625m-30.958 59.417s17.196-0.0219 28.852 1.4001m-33.996 22.325s7.9925 0.17919 29.166 1.0077m-33.082 22.305s16.855 1.1192 32.058 1.2092m-23.293-11.599-10.617 33.836m14.776-33.605-14.776 33.605m19.092-33.288-19.092 33.288m24.264-33.115-24.264 33.115m3.3531-34.637c11.584 1.4388 24.115 1.6466 32.043 1.5936m-9.7111 7.8186-25.685 25.225m0 0 25.078-16.548m-25.078 16.548 24.639-9.342m-0.38552 6.3815-24.254 2.9604m24.047 1.8878 2.1216-34.927m-23.347 2.0859 15.139 1.2784m-9.2695-32.837 13.248 0.98008m-9.3725-15.818c8.6667-0.4351 23.018 0.22597 27.989 0.47116m-23.071-16.747c9.9599-0.50003 23.1 1.774 24.498 2.0283m-18.835-18.647c10.509-0.5276 19.102 0.9379 19.102 0.9379m-13.892-14.517c6.6837-0.18166 13.541 1.4898 13.541 1.4898" stroke="#454545" stroke-linecap="round" stroke-opacity=".36471" stroke-width=".2893px"/>
   <g>
    <path d="m160.59 88.433 17.702 34.848m-27.805-35.457 27.805 35.457-22.277-35.087m-14.868 14.001-39.786 16.224 40.541-8.3535 36.39 13.215zm-4.4857-15.69-35.3 31.914 39.035-24.682 37.896 29.544-34.916-36.161m-21.217-2.2298-20.798 33.529 27.261-32.68m-6.6774-38.374-4.9691 36.85m5.1839 0.67452 5.1507-37.177m5.6686 0.46146-5.4286 37.226m32.364 2.783-14.272-38.796m-5.0435-0.58292 14.439 39.142m-5.1804-0.39606-14.649-39.28m-1.9642 37.729 2.7542-20.98 8.353 22.068m-20.531-39.717-1.5021-25.587m3.0021-11.874 4.8721 37.833m6.734 0.58382-7.9251-38.022m3.6667 0.56721 10.973 38.069m-16.224-39.011-2.6123-15.851m7.1688 16.462-6.4896-25.24m-2.0374 24.396s11.434 0.95119 14.011 2.3402m-17.627 35.185s24.686 1.2482 31.696 3.2066m-12.683 36.174-5.1-38.434m-17.953 36c14.505 1.8238 41.437 4.503 49.696 4.2922m-22.854 28.279-2.7878-29.867m28.113 30.714-0.30542 7.0591m-19.224-7.1196-0.16963 7.4189m-18.977-9.6325-0.0798 8.0417m-24.974-22.036 8.9046 2.1054m-6.3636-20.604 8.7965 1.8964m-6.4222-20.708 8.6665 1.4347m-6.46-20.49 8.4819 1.1081m-6.5552-20.226 8.4121 0.78046m-6.4059-19.92 8.2889 0.70365m-6.5032-19.471 7.9944 0.85905m50.616 127.67s-19.243 5.2724-63.74-4.4606c6.6288-41.46 13.948-131.57 13.948-131.57m-12.291 41.509s23.614-0.94722 28.149 1.6592m-32.6 39.849s42.179-0.0184 47.326 0.33645m4.119 24.656 17.702 34.848m-27.805-35.457 27.805 35.457-22.277-35.087m-14.868 14.001-39.786 16.224 40.541-8.3535 36.39 13.215zm-4.4857-15.69-35.3 31.914 39.035-24.682 37.896 29.544-34.916-36.161m-21.217-2.2298-20.798 33.529 27.261-32.68m-6.6774-38.374-4.9691 36.85m5.1839 0.67452 5.1507-37.177m5.6686 0.46146-5.4286 37.226m32.364 2.783-14.272-38.796m-5.0435-0.58292 14.439 39.142m-5.1804-0.39606-14.649-39.28m-1.9642 37.729 2.7542-20.98 8.353 22.068m-20.531-39.717-1.5021-25.587m3.0021-11.874 4.8721 37.833m6.734 0.58382-7.9251-38.022m3.6667 0.56721 10.973 38.069m-16.224-39.011-2.6123-15.851m7.1688 16.462-6.4896-25.24m-2.0374 24.396s11.434 0.95119 14.011 2.3402m-17.627 35.185s24.686 1.2482 31.696 3.2066m-12.683 36.174-5.1-38.434m-17.953 36c14.505 1.8238 41.437 4.503 49.696 4.2922m-22.854 28.279-2.7878-29.867m28.113 30.714-0.30542 7.0591m-19.224-7.1196-0.16963 7.4189m-18.977-9.6325-0.0798 8.0417m-24.974-22.036 8.9046 2.1054m-6.3636-20.604 8.7965 1.8964m-6.4222-20.708 8.6665 1.4347m-6.46-20.49 8.4819 1.1081m-6.5552-20.226 8.4121 0.78046m-6.4059-19.92 8.2889 0.70365m-6.5032-19.471 7.9944 0.85905m50.616 127.67s-19.243 5.2724-63.74-4.4606c6.6288-41.46 13.948-131.57 13.948-131.57m-12.291 41.509s23.614-0.94722 28.149 1.6592m-32.6 39.849s42.179-0.0184 47.326 0.33645" stroke="#030303" stroke-opacity=".3629" stroke-width=".21254px"/>
    <path d="m119.28-37.709 59.011 160.99c-32.597 6.4092-76.931-4.8617-76.931-4.8617 8.868-47.977 17.92-156.13 17.92-156.13z" stroke="#000" stroke-width=".21254px"/>
    <path d="m125.31 122.95 1.3078 11.662" stroke="#000" stroke-width=".3162"/>
   </g>
  </g>
  <path d="m118.16 134.99-0.16014-13.094" fill="#050505" fill-opacity=".36471" stroke="#000" stroke-width=".3162"/>
 </g>
</svg>
