<?xml version="1.0" encoding="UTF-8" standalone="no"?>
<!-- Created with Inkscape (http://www.inkscape.org/) -->

<svg
   width="99mm"
   height="45mm"
   viewBox="0 0 99 45"
   version="1.1"
   id="svg5"
   xmlns="http://www.w3.org/2000/svg"
   xmlns:svg="http://www.w3.org/2000/svg">
  <defs
     id="defs2" />
  <g
     id="layer1">
    <g
       id="g12475"
       transform="matrix(1.6985036,0,0,1.6826938,-124.90656,-189.52323)">
      <g
         id="g11945"
         style="fill:#ffffff;fill-opacity:0.995951">
        <path
           id="path73"
           style="fill:#ffffff;fill-opacity:0.995951;stroke:none;stroke-width:0.999999px;stroke-linecap:butt;stroke-linejoin:miter;stroke-opacity:1"
           d="M 277.94336,425.69141 V 434 h 17.76953 c 0,0 -11.32909,30.34462 6.22266,52.33984 l 17.10547,-16.21875 c -2.66609,-13.33043 0.22265,-23.20183 0.22265,-23.20183 h 10.22071 V 467.875 h 8.20241 v -42.18359 z m 45.13672,8.30797 h 6.40402 v 4.45984 h -8.35893 c 0,0 0.61745,-2.1385 1.95487,-4.45984 z M 305.26758,434 h 8.66406 c -8.70127,14.67685 -2.95508,38.02734 -2.95508,38.02734 -10.2738,3.35471 -13.99092,-16.32656 -5.70898,-38.02734 z"
           transform="scale(0.26458333)" />
        <path
           id="path2222"
           style="fill:#ffffff;fill-opacity:0.995951;stroke:none;stroke-width:0.999999px;stroke-linecap:butt;stroke-linejoin:miter;stroke-opacity:1"
           d="M 338.95508,425.69141 V 467.875 h 8.23828 v -23.06055 l 16.47852,23.06055 h 16.16601 V 434 h 8.57422 c -9.21698,13.07814 -3.20318,40.10215 -1.31614,41.98919 l 6.87278,-6.64349 c -3.42656,-8.1718 -1.51422,-17.69314 -0.56726,-22.4279 h 10.46987 v 20.9572 h 8.02317 V 425.69141 H 360.9668 L 364.96875,434 h 6.5918 v 30.22461 l -14.28321,-19.72656 c 11.58001,-4.9577 3.69328,-17.28485 0.0156,-18.80664 z m 64.80869,8.30797 v 4.50519 l -8.37902,0.002 c 0.37215,-2.10337 1.95861,-4.50719 1.95861,-4.50719 z m -50.90049,-0.3528 c 3.48743,6.78462 -5.00991,6.40329 -5.13672,0.0625 z"
           transform="scale(0.26458333)" />
        <path
           id="path6308"
           style="fill:#ffffff;fill-opacity:0.995951;stroke:none;stroke-width:0.999999px;stroke-linecap:butt;stroke-linejoin:miter;stroke-opacity:1"
           d="m 445.05859,425.69197 c -7.09387,43.98198 16.13043,53.50367 24.86133,60.81584 l 1.10742,0.34571 1.17774,0.004 c 8.7309,-7.31217 28.12255,-17.03056 25.8504,-47.41282 l -0.12754,-13.75273 z m 1.9668,9.12639 h 11.07617 c 0,0 -7.17336,19.50702 3.14649,40.39844 0,0 -15.85874,-7.67695 -14.22266,-40.39844 z m 25.29688,0.002 h 22.70719 c -0.1886,11.31636 -0.60318,20.33617 -3.3094,25.43555 -2.67934,5.04877 -6.56053,8.31016 -7.94467,8.66797 -2.76828,0.71561 -3.98866,0.77469 -6.04101,0 -2.05236,-0.77469 -14.22174,-9.68822 -5.41211,-34.10352 z"
           transform="scale(0.26458333)" />
        <path
           style="fill:#ffffff;fill-opacity:0.995951;stroke:none;stroke-width:0.264583px;stroke-linecap:butt;stroke-linejoin:miter;stroke-opacity:1"
           d="m 114.484,112.631 h 2.17001 v 11.161 h -2.17048 c -0.75147,-3.96779 -1.22332,-5.47816 -3.11704,-7.67247 v 7.67247 h -2.07066 v -11.161 h 2.08353 c 0,0 1.68783,1.129 3.10464,3.692 z"
           id="path9031" />
      </g>
      <g
         id="g11939"
         transform="translate(-51.584802,-14.414196)"
         style="fill:#ffffff;fill-opacity:1">
        <path
           style="fill:#ffffff;fill-opacity:1;stroke:none;stroke-width:0.264583px;stroke-linecap:butt;stroke-linejoin:miter;stroke-opacity:1"
           d="m 149.19295,141.64623 h 7.4016 l -1.54805,3.67661 c 7.30484,5.99868 -5.66004,13.06164 -6.38569,3.53148 0,0 0,0 1.88668,-3.2e-4 1.6448,6.38569 8.36912,-1.01561 1.54804,-2.32177 l 1.40293,-2.61233 h -4.25713 z"
           id="path10928" />
        <path
           style="fill:#ffffff;fill-opacity:1;stroke:none;stroke-width:0.264583px;stroke-linecap:butt;stroke-linejoin:miter;stroke-opacity:1"
           d="m 164.87276,141.64623 c 0,0 -2.74328,3.16371 -2.90843,9.19152 l -3.13028,2.95013 c 0,0 -0.28813,-3.42731 2.60191,-9.86798 l -4.19596,10e-5 1.9e-4,-2.27377 z"
           id="path11608" />
      </g>
    </g>
  </g>
</svg>
